<?xml version="1.0" encoding="UTF-8" standalone="no"?>
<svg
   xmlns:dc="http://purl.org/dc/elements/1.1/"
   xmlns:cc="http://creativecommons.org/ns#"
   xmlns:rdf="http://www.w3.org/1999/02/22-rdf-syntax-ns#"
   xmlns:svg="http://www.w3.org/2000/svg"
   xmlns="http://www.w3.org/2000/svg"
   xmlns:sodipodi="http://sodipodi.sourceforge.net/DTD/sodipodi-0.dtd"
   xmlns:inkscape="http://www.inkscape.org/namespaces/inkscape"
   width="4in"
   height="4in"
   id="svg5384"
   version="1.1"
   inkscape:version="0.91 r13725"
   sodipodi:docname="flowers.svg">
  <metadata
     id="metadata5430">
    <rdf:RDF>
      <cc:Work
         rdf:about="">
        <dc:format>image/svg+xml</dc:format>
        <dc:type
           rdf:resource="http://purl.org/dc/dcmitype/StillImage" />
        <dc:title></dc:title>
      </cc:Work>
    </rdf:RDF>
  </metadata>
  <defs
     id="defs5428" />
  <sodipodi:namedview
     pagecolor="#ffffff"
     bordercolor="#666666"
     borderopacity="1"
     objecttolerance="10"
     gridtolerance="10"
     guidetolerance="10"
     inkscape:pageopacity="0"
     inkscape:pageshadow="2"
     inkscape:window-width="1535"
     inkscape:window-height="876"
     id="namedview5426"
     showgrid="false"
     inkscape:zoom="1.84375"
     inkscape:cx="160.91655"
     inkscape:cy="193.18555"
     inkscape:window-x="65"
     inkscape:window-y="24"
     inkscape:window-maximized="1"
     inkscape:current-layer="svg5384"
     units="in" />
  <path
     inkscape:connector-curvature="0"
     id="path5388"
     style="fill:#78a3ad"
     d="m 335.4042,304.7531 c -3.0778,-3.12507 -8.10487,-5.37512 -11.20831,-6.90016 -9.36164,-4.5501 -7.92533,-10.17523 -8.77173,-19.67544 -1.33371,-15.10037 -1.59019,-30.12571 -2.25705,-45.25105 -0.6412,-14.62533 -1.82103,-29.22567 -1.74408,-43.851 0.0257,-4.00009 -1.5389,-6.62515 -2.51354,-10.50023 -0.30778,-1.25003 -0.20518,-6.05014 -2.05186,-6.57515 -4.71929,-1.32503 -4.5141,16.57537 -4.5654,18.62542 -0.25648,7.55017 -4.48846,13.05029 -9.90025,18.35041 -3.33428,3.25008 -7.41236,4.95012 -10.6184,8.15019 -7.61755,7.50017 -14.64519,16.77538 -20.82643,25.42558 -1.82103,2.52505 -3.20604,5.15011 -5.79652,7.02515 -4.33457,3.12508 -10.05414,4.85011 -15.00426,6.72516 -6.59162,2.50005 -13.7988,3.45008 -20.03134,6.82515 -3.7703,2.02505 -6.56597,4.85011 -9.8746,7.40017 -3.33428,2.60008 -6.43772,4.72513 -9.10515,8.00021 -4.15503,5.12511 -8.92561,9.70022 -13.46536,14.50032 -1.10288,1.15003 -2.12881,2.40006 -3.25734,3.50008 -1.07723,1.05003 -2.05186,1.22503 -3.20604,1.95005 -1.59019,1.00002 -3.66771,4.4751 -2.18011,6.27514 1.10288,1.35003 5.10402,0.77502 6.54032,0.95002 17.21002,2.20005 34.44569,4.07509 51.707,5.67513 10.33627,0.97502 20.46736,2.02505 30.77798,3.47508 7.23282,1.00002 17.85123,-0.75002 21.82671,6.55015 2.74437,5.00011 3.41123,11.90027 8.61784,15.27534 15.2351,9.85023 35.88199,-11.42526 39.42146,-24.67556 0.71815,-2.77506 -0.46167,-5.20011 -2.51354,-7.25016 z" />
  <path
     inkscape:connector-curvature="0"
     id="path5390"
     style="fill:#bdcf46"
     d="m 338.84108,125.89902 c -0.8977,-3.22507 -5.95041,-4.22509 -8.66913,-5.25012 -4.668,-1.77504 -9.56683,-3.95009 -14.31176,-6.27514 -3.56512,-1.75004 -9.64377,-3.72508 -11.87517,-7.15016 -2.15446,-3.30008 -1.17983,-8.500194 -1.17983,-12.175277 0,-2.325053 2.02622,-8.8002 -0.61555,-10.275233 -1.25677,-0.700016 -4.71929,0.075 -6.00171,0.375008 -1.5389,0.350008 -3.46252,1.125026 -5.02707,1.600036 -2.35964,0.700016 -3.89854,1.000023 -2.92391,3.350076 2.30835,5.675129 2.3853,10.25023 -0.0769,15.97536 -2.18011,5.07512 -5.74522,9.62522 -10.02849,13.1753 -0.92334,0.77502 -2.10316,1.62504 -3.53947,2.35005 -0.35908,1.95005 -1.12853,4.1251 -2.2827,6.35015 6.41208,1.40003 12.1573,5.07511 15.90195,10.65024 2.334,3.55008 3.79595,7.67517 4.20633,11.92527 1.46195,1.42503 2.61613,3.00007 3.59076,4.67511 0.30778,0.50001 0.66686,0.97502 0.92334,1.50003 2.74437,5.65013 3.69336,11.47526 2.92391,16.97538 -0.58991,4.3501 -2.20576,8.5252 -4.95013,12.27528 l -0.6412,0.80002 c -0.66686,0.77502 -1.33372,1.50003 -2.02622,2.20005 -0.38473,0.37501 0,4.3251 -0.077,5.10012 -0.25648,2.07504 -0.7438,4.15009 -1.51325,6.10013 -1.30806,3.32508 -3.53946,6.87516 -6.61726,8.95021 -3.56512,2.37505 -8.18181,2.75006 -11.87517,4.87511 -5.56568,3.17507 -9.02821,8.00018 -15.20945,10.40023 -2.53918,1.00003 -5.2579,1.60004 -8.02792,2.00005 -1.87233,0.27501 -3.7703,0.50001 -5.69393,0.50001 -3.56511,0 -6.95069,-0.50001 -10.10543,-1.42503 -3.46253,-1.05003 -6.66856,-2.60006 -9.46423,-4.70011 -1.00028,0.125 -2.00057,0.15 -3.0265,0.15 l -0.56426,0 c -2.18011,0 -4.79624,-0.025 -7.6432,-0.375 1.84668,6.72515 1.38501,14.20032 -1.79538,21.05047 -0.58991,1.25003 -1.25677,2.32506 -1.97492,3.27508 0.41037,2.15005 0.53861,4.82511 0.0513,7.72517 -0.0256,0.25001 0,0.45001 -0.0513,0.72502 -2.07752,10.37523 -8.69478,18.27544 -18.10771,21.60051 -0.92334,0.35001 -1.87233,0.57502 -2.87261,0.82502 -1.33372,0.30001 -2.71873,0.55001 -4.12938,0.65002 -5.07837,8.52519 -14.82473,14.27532 -25.57137,14.27532 -6.20689,0 -12.00341,-2.02505 -16.6714,-5.60013 -1.79539,0.50001 -3.61642,0.85002 -5.4631,1.00003 -0.6412,0.05 -1.28241,0.1 -1.92362,0.1 -7.5919,0 -15.10686,-3.60008 -20.62124,-9.85022 -1.5902,-1.80005 -2.71872,-3.77509 -3.84725,-5.82516 -0.61556,-1.12503 -1.46195,-3.62508 -2.48789,-4.3001 -1.02593,-0.67501 -3.89854,0.15 -4.97577,0.37501 -3.92419,0.82502 -7.566252,1.47503 -11.669982,1.50003 -3.206039,0.025 -7.848384,-1.07502 -10.669698,-2.57506 -2.12881,-1.15002 -2.462238,-0.425 -4.539752,0.60002 -1.82103,0.90002 -2.846962,0.75002 -3.64206,2.80006 -1.923624,4.82514 -3.359929,9.50024 3.385577,9.92525 5.822167,0.37501 13.978331,-3.30007 17.64604,2.95007 4.308917,7.35017 1.897975,16.32537 4.796235,24.00054 2.61613,6.87516 9.90025,3.80009 15.2351,2.40006 3.64206,-0.95002 6.87375,-3.00007 10.41321,-4.3251 4.38586,-1.67504 8.89997,-3.10007 13.51666,-4.05009 10.87489,-2.25005 21.31375,10.12523 28.39269,16.07536 4.07808,3.42508 7.02763,7.22517 12.9011,6.72515 5.79652,-0.47501 8.72043,-5.42512 11.84952,-9.57521 2.30835,-3.05007 4.20632,-6.30015 6.20689,-9.55022 2.84696,-4.6251 6.51467,-8.7502 9.59247,-13.1753 2.59048,-3.67508 5.15531,-7.45017 8.13052,-10.80024 1.385,-1.52504 2.59048,-3.15007 4.05243,-4.55011 2.69307,-2.60005 4.69364,-4.17512 8.51524,-4.47512 9.61812,-0.75002 19.31318,-0.20001 28.95695,-0.025 7.33541,0.125 16.54316,1.70006 22.90394,-2.77507 5.18096,-3.65008 5.79652,-10.45023 6.71986,-16.15036 1.10287,-6.77516 2.84696,-13.62531 3.41122,-20.45047 0.61556,-7.55017 1.56455,-9.65021 8.4383,-13.15029 5.66828,-2.87507 12.02906,-4.2251 17.77428,-6.95016 6.30948,-2.97507 1.25677,-12.60029 0,-17.25039 -2.51354,-9.15021 -5.05272,-19.00043 -3.64206,-28.55065 0.7951,-5.32512 5.74522,-9.27521 9.1308,-13.1253 4.07808,-4.5751 20.92902,-19.55044 19.0567,-26.12559 z" />
  <g
     id="g5392"
     transform="matrix(2.5648313,0,0,2.5000567,12.158507,21.021645)">
    <path
       inkscape:connector-curvature="0"
       id="path5394"
       style="fill:#fcc21b"
       d="m 3.62,57.56 c -0.25,-0.66 -1.4,-0.91 -1.9,-1.4 -1,-0.97 -1.34,-2.3 -1.05,-3.6 0.15,-0.7 0.49,-1.36 0.95,-1.91 0.4,-0.46 1.45,-0.98 1.6,-1.57 0.1,-0.44 -0.12,-0.93 -0.19,-1.35 -0.1,-0.59 -0.1,-1.12 0.1,-1.68 0.69,-1.88 2.03,-3.34 4.06,-3.66 l 0.64,-0.03 c 0.46,0 0.93,0.06 1.37,0.2 0.32,0.1 0.7,0.3 1.05,0.3 l 0.23,-0.03 c 0.54,-0.16 0.6,-0.81 0.84,-1.24 0.63,-1.13 1.46,-2.01 2.53,-2.47 0.48,-0.2 1,-0.34 1.59,-0.34 l 0.08,0 c 0.43,0 0.87,0.16 1.3,0.37 0.96,0.47 1.85,1.33 2.33,2.12 0.33,0.56 0.68,0.74 1.05,0.74 0.25,0 0.52,-0.09 0.79,-0.21 0.37,-0.15 0.76,-0.34 1.18,-0.44 l 0.57,-0.07 c 0.59,0 1.18,0.19 1.73,0.45 1.2,0.53 2.4,1.46 3.24,2.61 0.35,0.47 0.64,0.97 0.83,1.5 0.16,0.4 0.28,0.81 0.32,1.23 0.09,0.81 -0.69,1.74 -0.13,2.52 0.02,0.04 0.03,0.07 0.06,0.1 0.06,0.06 0.16,0.08 0.24,0.14 l 0,0 c 0.32,0.2 0.73,0.31 1.05,0.45 0.42,0.19 0.8,0.44 1.14,0.76 0.02,0.02 0.05,0.04 0.07,0.06 0.22,0.23 0.48,0.52 0.73,0.81 0.15,0.19 0.28,0.38 0.41,0.58 -0.04,0.59 -0.03,1.19 0.02,1.79 0.05,0.58 0.12,1.15 0.25,1.72 -0.16,0.67 -0.4,1.3 -0.76,1.89 -0.77,-0.46 -1.6,-0.81 -2.49,-1.02 -0.98,-0.23 -1.99,-0.35 -2.98,-0.35 -0.26,0 -0.51,0.06 -0.77,0.07 -2.92,0.19 -5.57,1.41 -7.51,3.56 l -0.21,0.25 c -0.27,0.33 -0.51,0.68 -0.74,1.02 -1.27,0.17 -2.43,0.57 -3.5,1.12 -1.63,0.83 -3.04,2.01 -4.06,3.63 C 9.56,66.38 9.49,66.6 9.38,66.8 9.33,66.75 9.3,66.7 9.24,66.65 L 8.62,66.47 c -0.47,0 -0.96,0.24 -1.45,0.24 L 6.76,66.64 C 6.51,66.56 6.28,66.45 6.04,66.33 3.72,65.2 2,62.61 2.71,60.07 2.9,59.44 3.91,58.27 3.62,57.56 Z" />
    <path
       inkscape:connector-curvature="0"
       id="path5396"
       style="fill:#fcc21b"
       d="m 16.77,32.06 c -0.17,-1.96 0.92,-3.34 2.52,-4.38 0.42,-0.27 1.06,-0.37 1.18,-0.92 0.08,-0.43 -0.21,-0.87 -0.36,-1.26 -0.25,-0.63 -0.33,-1.32 -0.31,-1.99 0.18,-2.06 1.55,-3.48 3.38,-4.3 0.39,-0.18 0.77,-0.24 1.18,-0.24 L 24.84,19 c 0.31,0.04 0.68,0.15 1.01,0.15 L 26.2,19.1 c 0.58,-0.2 1.02,-1.27 1.46,-1.7 0.51,-0.49 1.14,-0.87 1.84,-1.08 0.38,-0.11 0.76,-0.17 1.14,-0.17 0.9,0 1.78,0.31 2.52,0.97 0.52,0.45 0.85,1.59 1.52,1.81 l 0.23,0.03 c 0.71,0 1.66,-0.9 2.23,-1.09 0.02,-0.01 0.05,-0.01 0.07,-0.02 0.23,2.4 1.27,4.63 3.07,6.26 -0.03,2.13 0.65,4.19 1.81,5.97 -0.45,0.41 -0.89,0.83 -1.29,1.31 -0.74,0.85 -1.29,1.82 -1.68,2.91 l -0.14,0.07 c -1.57,0.88 -2.91,2.11 -3.87,3.59 -0.57,0.88 -0.98,1.83 -1.27,2.79 -0.16,0.54 -0.28,1.1 -0.35,1.66 -0.15,-0.27 -0.3,-0.54 -0.46,-0.8 -1.61,-2.54 -4.03,-4.35 -6.15,-5.29 -1.41,-0.63 -2.78,-0.94 -4.13,-0.94 -0.3,0 -0.6,0.01 -0.9,0.05 -1.33,-1.15 -2.98,-2.04 -4.78,-2.38 -0.16,-0.34 -0.27,-0.67 -0.3,-0.99 z" />
    <path
       inkscape:connector-curvature="0"
       id="path5398"
       style="fill:#fcc21b"
       d="M 44.66,11.49 C 44.47,10.91 44.39,10.4 44.5,9.82 44.9,7.85 45.99,6.2 47.96,5.57 48.41,5.46 48.87,5.38 49.33,5.38 l 0.64,0.05 c 0.28,0.05 0.61,0.16 0.92,0.16 l 0.38,-0.08 c 0.51,-0.23 0.47,-0.88 0.65,-1.35 0.66,-1.79 1.76,-3.15 3.72,-3.42 l 0.34,-0.02 c 1.32,0 2.84,0.98 3.63,1.93 0.36,0.44 0.68,0.59 1,0.59 0.64,0 1.24,-0.65 2,-0.96 0.31,-0.14 0.65,-0.19 0.99,-0.19 0.45,0 0.9,0.09 1.33,0.2 0.32,0.09 0.64,0.21 0.97,0.34 1.13,0.47 2.21,1.22 3.03,2.17 0.54,0.63 0.96,1.33 1.17,2.1 0.1,0.39 0,0.83 -0.05,1.26 -0.06,0.49 -0.06,0.97 0.37,1.34 0.36,0.3 0.94,0.28 1.36,0.4 0.1,0.02 0.18,0.06 0.28,0.09 -1.32,1.3 -2.61,3.25 -2.98,6.14 -0.34,0.21 -0.67,0.45 -1,0.71 l -0.27,0.23 c -2.84,2.56 -4.06,6.22 -3.47,10.18 -0.23,-0.12 -0.44,-0.27 -0.69,-0.36 -1.28,-0.5 -2.6,-0.76 -3.92,-0.76 -1.87,0 -3.67,0.51 -5.4,1.47 -0.06,0.04 -0.13,0.06 -0.19,0.1 -0.48,-0.19 -0.97,-0.36 -1.5,-0.5 L 52.49,27.16 52.31,27.12 C 51.92,27.03 51.52,27.03 51.12,27 c -0.38,-0.04 -0.75,-0.12 -1.13,-0.12 -0.44,0 -0.87,0.03 -1.3,0.07 -0.25,0.04 -0.5,0.09 -0.76,0.14 -0.21,0.04 -0.42,0.07 -0.62,0.12 -0.44,-0.57 -0.77,-1.2 -0.94,-1.88 -0.11,-0.42 -0.16,-0.84 -0.14,-1.29 0,-0.11 -0.01,-0.22 0,-0.33 0.07,-0.66 0.89,-1.97 0.5,-2.62 C 46.37,20.48 45.2,20.4 44.63,20 43.5,19.18 42.96,17.93 43.05,16.6 c 0.01,-0.19 0.07,-0.36 0.11,-0.54 0.1,-0.53 0.26,-1.04 0.54,-1.49 0.2,-0.32 0.63,-0.7 0.95,-1.08 0.19,-0.23 0.36,-0.47 0.38,-0.7 0.06,-0.43 -0.24,-0.89 -0.37,-1.3 z" />
    <path
       inkscape:connector-curvature="0"
       id="path5400"
       style="fill:#fcc21b"
       d="m 86.5,11.1 c 0.42,-0.07 0.85,-0.1 1.3,-0.1 1.71,0 3.52,0.53 4.82,1.58 0.27,0.21 0.55,0.43 0.76,0.69 0.57,0.69 0.36,2.03 1.42,2.34 l 0.28,0.04 c 0.4,0 0.83,-0.19 1.19,-0.25 0.24,-0.04 0.48,-0.05 0.72,-0.05 0.27,0 0.54,0.03 0.81,0.08 0.31,0.07 0.67,0.17 1.04,0.28 0.67,0.21 1.35,0.51 1.74,0.96 1.46,1.69 2.11,4.28 1.4,6.43 -0.2,0.62 -0.63,1.13 -0.86,1.73 -0.26,0.69 -0.08,0.53 0.32,1.11 0.27,0.41 0.45,0.99 0.66,1.45 0.36,0.78 0.37,1.58 0.36,2.43 -0.03,2.01 -1.16,3.72 -2.64,5 -0.38,0.33 -0.84,0.43 -1.32,0.43 -0.48,0 -0.98,-0.09 -1.49,-0.14 L 96.54,35.08 96.2,35.1 c -0.15,0.96 0.31,2 0.34,2.97 0.01,0.43 -0.01,0.83 -0.09,1.21 -1.69,-0.91 -3.64,-1.41 -5.73,-1.41 -2,0 -3.96,0.45 -5.7,1.34 -0.49,0.24 -0.91,0.53 -1.28,0.82 -0.42,-0.06 -0.88,-0.1 -1.37,-0.1 -0.69,0 -1.37,0.08 -2.02,0.24 -0.62,0.15 -1.21,0.34 -1.78,0.57 -0.26,-0.37 -0.49,-0.77 -0.63,-1.23 -0.21,-0.66 0,-2.25 -0.64,-2.7 -0.21,-0.16 -0.5,-0.2 -0.81,-0.2 -0.32,0 -0.66,0.05 -0.99,0.06 -0.48,-0.63 -0.96,-1.21 -1.46,-1.71 -0.77,-0.77 -1.58,-1.39 -2.41,-1.87 -0.01,-0.06 -0.01,-0.13 -0.01,-0.19 -0.03,-0.33 -0.04,-0.67 0,-0.99 0.08,-0.63 0.7,-1.67 0.5,-2.27 -0.05,-0.16 -0.17,-0.28 -0.28,-0.41 -0.2,-0.24 -0.45,-0.45 -0.64,-0.67 -0.43,-0.45 -0.73,-0.92 -0.87,-1.52 -0.03,-0.14 -0.03,-0.28 -0.06,-0.41 -0.33,-1.89 0.03,-3.75 1.52,-5.1 0.12,-0.09 0.25,-0.17 0.37,-0.25 0.46,-0.32 0.95,-0.6 1.48,-0.75 0.41,-0.11 0.97,-0.15 1.27,-0.48 0.38,-0.45 0.06,-1.05 0.03,-1.57 -0.13,-1.97 0.33,-3.75 2.07,-4.85 0.34,-0.21 0.76,-0.32 1.19,-0.39 0.13,-0.02 0.27,-0.04 0.41,-0.05 0.12,-0.01 0.23,-0.04 0.35,-0.04 0.79,0 1.58,0.2 2.25,0.45 0.12,0.05 0.28,0.07 0.39,0.13 0.31,0.15 0.57,0.21 0.79,0.21 0.78,0 1.11,-0.81 1.64,-1.52 0.08,-0.12 0.16,-0.23 0.25,-0.33 0.56,-0.62 1.4,-0.87 2.22,-0.99 z" />
    <path
       inkscape:connector-curvature="0"
       id="path5402"
       style="fill:#fcc21b"
       d="m 97.48,72.25 -0.53,-0.07 c -1.17,0 -1.15,1.28 -1.74,2.25 -0.42,0.71 -1.19,1.13 -1.96,1.43 -0.72,0.28 -1.54,0.43 -2.37,0.51 -0.27,0.03 -0.53,0.07 -0.81,0.07 -1.46,0 -2.93,-0.37 -4.02,-1.22 -0.69,-0.56 -0.78,-1.91 -1.89,-1.98 l -0.05,0 c -0.47,0 -0.92,0.35 -1.33,0.52 -0.48,0.2 -0.97,0.3 -1.48,0.3 l -0.02,0 c -1.72,0 -3.52,0.05 -4.93,-1.07 -1.12,-0.88 -2.06,-2.28 -2,-3.71 0.04,-0.78 0.29,-1.55 0.66,-2.24 0.27,-0.5 0.93,-1.11 0.86,-1.72 -0.06,-0.52 -0.48,-0.81 -0.91,-1.04 -0.14,-0.07 -0.28,-0.14 -0.41,-0.21 -0.85,-0.45 -1.45,-1.08 -1.84,-1.81 -0.59,-1.09 -0.68,-2.38 -0.36,-3.61 0.26,-1.03 0.82,-1.98 1.59,-2.73 0.64,-0.61 1.43,-1.06 2.34,-1.26 0.28,-0.07 0.59,-0.08 0.87,-0.16 0.23,-0.06 0.43,-0.15 0.58,-0.35 l 0.04,-0.05 c 0.4,-0.61 0.05,-1.52 -0.13,-2.14 -0.24,-0.78 -0.25,-1.81 0,-2.58 0.13,-0.39 0.32,-0.72 0.52,-1.05 0.07,-0.11 0.14,-0.23 0.23,-0.33 0.79,-1.05 1.97,-1.74 3.33,-2.07 l 0.01,-0.01 0.62,-0.07 c 0.5,0 0.98,0.12 1.46,0.24 0.52,0.14 1.04,0.27 1.56,0.27 l 0.48,-0.04 c 0.51,-0.1 0.75,-0.47 0.99,-0.88 0.22,-0.36 0.43,-0.75 0.83,-0.96 0.92,-0.46 1.98,-0.7 3.03,-0.7 1.41,0 2.81,0.44 3.84,1.34 0.38,0.32 0.71,0.7 0.98,1.16 0.19,0.33 0.33,0.95 0.52,1.5 0.16,0.45 0.36,0.87 0.69,1.01 l 0.39,0.08 c 0.65,0 1.45,-0.45 2.05,-0.46 l 0.07,0 c 1.42,0 2.62,0.71 3.37,1.85 0.41,0.63 0.65,1.36 0.71,2.1 0.06,0.63 -0.32,1.78 0,2.33 0.24,0.4 0.77,0.59 1.13,0.85 0.51,0.36 0.9,0.74 1.17,1.31 0.3,0.62 0.47,1.27 0.57,1.92 0.21,1.3 0.01,2.6 -0.82,3.77 -0.45,0.55 -0.97,1.05 -1.6,1.37 -0.38,0.19 -0.92,0.35 -1.13,0.74 -0.28,0.52 0.15,1.04 0.31,1.54 0.56,1.9 0.48,3.73 -0.99,5.18 -0.73,0.71 -1.99,1.02 -3.16,1.02 -0.45,0 -0.91,-0.05 -1.32,-0.14 z" />
    <path
       inkscape:connector-curvature="0"
       id="path5404"
       style="fill:#fcc21b"
       d="m 55.86,33.75 c 0.75,-0.64 1.53,-1.11 2.37,-1.39 0.49,-0.17 0.99,-0.29 1.51,-0.29 0.29,0 0.59,0.04 0.89,0.09 0.28,0.05 0.56,0.14 0.86,0.25 0.73,0.29 1.37,0.92 1.87,1.69 0.52,0.78 0.88,1.68 1.02,2.45 0.02,0.13 0.07,0.21 0.11,0.32 0.26,0.81 0.79,0.99 1.44,0.99 0.36,0 0.76,-0.05 1.17,-0.05 l 0.06,0.01 0.42,0.02 c 0.9,0.1 1.66,0.69 2.31,1.33 0.72,0.71 1.37,1.62 1.86,2.62 0.69,1.43 1.04,3.02 0.77,4.5 -0.16,0.35 -0.31,0.72 -0.44,1.1 -0.45,0.62 -1.07,1.21 -0.76,2.05 0.06,0.15 0.16,0.28 0.27,0.41 -0.01,0.14 -0.04,0.28 -0.05,0.43 -2.75,1.74 -4.71,4.71 -5.2,8.16 -0.17,1.25 -0.08,2.47 0.15,3.65 -0.19,0.49 -0.56,0.99 -0.82,1.46 -0.24,0.43 -0.54,0.78 -0.88,1.09 -0.33,-0.06 -0.67,-0.1 -1.01,-0.12 -0.75,-0.7 -1.6,-1.25 -2.56,-1.66 -1.63,-0.7 -3.29,-1.05 -4.94,-1.05 -2.46,0 -4.78,0.79 -6.72,2.31 l -0.29,0.25 c -0.31,0.27 -0.59,0.55 -0.86,0.83 l -0.56,-0.02 c -0.53,0 -1.03,0.08 -1.54,0.16 -0.45,-0.37 -0.88,-0.78 -1.26,-1.26 -0.98,-1.27 -0.57,-3.06 -1.44,-4.32 -0.62,-0.88 -1.84,-0.34 -2.65,-1 -0.95,-0.78 -1.7,-1.83 -2.16,-2.98 -0.33,-0.83 -0.5,-1.71 -0.5,-2.6 0,-0.48 0.07,-0.96 0.2,-1.43 0.15,-0.58 0.38,-1.16 0.76,-1.68 0.44,-0.62 2,-1.46 1.97,-2.33 0,-0.2 -0.07,-0.39 -0.19,-0.58 -0.34,-0.58 -1.04,-1.13 -1.29,-1.69 -0.12,-0.23 -0.17,-0.48 -0.24,-0.72 -0.07,-0.27 -0.12,-0.53 -0.14,-0.8 -0.08,-0.96 0.15,-1.91 0.69,-2.75 0.45,-0.69 1.07,-1.26 1.79,-1.66 0.6,-0.33 1.93,-0.47 2.33,-1.04 0.29,-0.42 0.25,-1.04 0.35,-1.52 0.11,-0.59 0.31,-1.09 0.65,-1.55 0.05,-0.06 0.07,-0.14 0.13,-0.2 0.36,-0.43 0.76,-0.79 1.18,-1.11 0.91,-0.7 1.95,-1.15 3.09,-1.24 0.14,-0.01 0.28,-0.05 0.43,-0.05 0.23,0 0.47,0.04 0.7,0.07 0.13,0.02 0.27,0.02 0.42,0.05 0.75,0.2 1.47,0.5 2.09,0.98 0.06,0.05 0.13,0.11 0.2,0.18 0.31,0.28 0.64,0.59 1.05,0.62 l 0.07,0.01 c 0.24,0 0.43,-0.12 0.61,-0.27 0.25,-0.22 0.47,-0.51 0.71,-0.72 z" />
    <path
       inkscape:connector-curvature="0"
       id="path5406"
       style="fill:#fcc21b"
       d="m 42.67,93.37 c -0.02,-0.53 0.07,-1.02 0.24,-1.52 0.13,-0.37 0.41,-0.79 0.44,-1.21 0,-0.05 0.02,-0.12 0.01,-0.18 -0.12,-1.1 -1.47,-1.13 -2.05,-1.81 -0.04,-0.05 -0.06,-0.1 -0.1,-0.14 -1.49,-1.87 -1.59,-4.86 -0.83,-7.03 0.26,-0.78 0.65,-1.57 1.35,-2.02 0.44,-0.29 0.95,-0.44 1.36,-0.66 0.42,-0.21 0.72,-0.47 0.79,-0.94 0.03,-0.21 0.02,-0.45 -0.07,-0.75 -0.26,-0.94 -0.27,-2.22 0.05,-3.3 0.14,-0.47 0.34,-0.92 0.64,-1.25 0.32,-0.34 0.67,-0.6 1.03,-0.82 0.18,-0.1 0.35,-0.21 0.53,-0.29 0.56,-0.23 1.14,-0.33 1.76,-0.33 0.46,0 0.93,0.07 1.41,0.17 0.14,0.03 0.27,0.05 0.41,0.08 0.38,0.09 0.77,0.34 1.15,0.34 l 0.39,-0.1 c 0.38,-0.23 0.52,-0.77 0.7,-1.16 0.31,-0.64 0.78,-1.19 1.31,-1.65 0.47,-0.37 0.98,-0.64 1.5,-0.81 0.51,-0.17 1.04,-0.25 1.57,-0.25 0.87,0 1.75,0.2 2.61,0.58 0.57,0.24 0.96,0.61 1.34,1.11 0.03,0.04 0.06,0.08 0.08,0.12 0.24,0.35 0.46,0.79 0.82,0.98 l 0.55,0.11 c 0.55,0 1.25,-0.2 1.71,-0.2 l 0.06,0 c 0.74,0.04 1.48,0.25 2.13,0.64 0.04,0.03 0.07,0.07 0.12,0.09 1.13,0.71 1.84,1.87 1.87,3.27 0.02,0.72 -0.61,1.78 -0.29,2.45 0.33,0.71 1.94,0.79 2.55,1.11 2.69,1.42 3.33,5.11 2.12,7.78 -0.39,0.86 -1.61,0.92 -1.76,1.89 -0.2,1.37 0.85,2.68 0.56,4.11 -0.38,1.92 -1.46,3.55 -3.29,4.22 -0.44,0.17 -0.98,0.24 -1.5,0.24 -0.38,0 -0.76,-0.04 -1.09,-0.13 -0.39,-0.09 -0.9,-0.26 -1.37,-0.26 -0.28,0 -0.54,0.05 -0.76,0.21 l -0.05,0.05 c -0.44,0.35 -0.36,0.96 -0.45,1.46 -0.44,2.6 -2.98,4.35 -5.42,4.35 -1.51,0 -2.99,-0.68 -3.91,-2.22 -0.31,-0.53 -0.61,-1.22 -1.31,-1.27 l -0.06,-0.01 c -0.58,0 -1.15,0.66 -1.62,0.94 -0.68,0.4 -1.44,0.67 -2.22,0.74 l -0.25,0.02 c -1.34,0 -2.66,-0.85 -3.53,-1.86 -0.95,-1.12 -1.14,-2.53 -1.21,-3.95 0.01,-0.32 0,-0.63 -0.02,-0.94 z" />
    <path
       inkscape:connector-curvature="0"
       id="path5408"
       style="fill:#fcc21b"
       d="m 12.13,80.7 c -0.04,-0.63 -0.01,-1.26 0.08,-1.84 0.1,-0.61 0.26,-1.23 0.58,-1.74 0.11,-0.18 0.24,-0.33 0.39,-0.47 0.04,-0.04 0.08,-0.06 0.12,-0.1 0.94,-0.8 2.26,-1.06 1.52,-2.58 -0.04,-0.07 -0.06,-0.18 -0.1,-0.27 -0.36,-0.88 -0.56,-2.02 -0.43,-3.04 0.07,-0.47 0.19,-0.92 0.41,-1.28 0.98,-1.56 2.5,-2.1 4.23,-2.1 l 0.11,0 0.51,0.02 c 0.33,0.03 0.69,0.16 1.02,0.16 l 0.54,-0.19 c 0.02,-0.02 0.02,-0.05 0.04,-0.07 0.28,-0.31 0.34,-0.81 0.44,-1.19 0.19,-0.68 0.56,-1.3 1,-1.84 C 23.64,63 25,62.5 26.45,62.5 c 0.54,0 1.09,0.08 1.65,0.2 0.15,0.04 0.26,0.11 0.4,0.17 0.41,0.16 0.77,0.38 1.12,0.7 0.33,0.3 0.64,0.78 1.08,0.92 l 0.3,0.02 c 0.05,0 0.12,-0.02 0.18,-0.03 0.59,-0.06 1.33,-0.44 1.82,-0.51 l 0.59,-0.04 c 0.3,0 0.59,0.04 0.88,0.09 0.25,0.04 0.5,0.1 0.74,0.2 1.3,0.49 2.26,1.54 2.54,2.96 0.15,0.71 -0.28,1.86 0.14,2.47 0.2,0.3 0.65,0.4 1.13,0.46 -0.9,1.57 -1.28,3.33 -1.33,4.98 -1.29,1.08 -2.27,2.58 -2.91,4.48 -1.12,3.2 -1.33,8.17 1.43,12.08 -0.06,0.19 -0.15,0.37 -0.29,0.54 -1.27,1.49 -2.98,2.62 -5,2.64 l -0.31,0.01 c -0.73,0 -1.43,-0.05 -2.11,-0.37 -0.46,-0.2 -1.04,-0.38 -1.44,-0.65 -0.41,-0.27 -0.46,-0.45 -0.67,-0.45 -0.1,0 -0.24,0.04 -0.45,0.12 -0.6,0.22 -1.11,0.66 -1.73,0.86 -0.59,0.2 -1.22,0.29 -1.85,0.29 -0.45,0 -0.9,-0.06 -1.35,-0.15 -1.2,-0.24 -2.34,-0.77 -3.23,-1.54 -0.01,-0.01 -0.01,-0.02 -0.02,-0.03 -0.69,-0.62 -1.02,-1.9 -1.21,-2.76 -0.11,-0.51 -0.11,-1.01 -0.03,-1.53 0.07,-0.45 0.34,-0.99 0.21,-1.46 -0.14,-0.48 -0.5,-0.69 -0.91,-0.83 -0.49,-0.19 -1.05,-0.28 -1.43,-0.58 -0.16,-0.14 -0.3,-0.3 -0.44,-0.45 -1.13,-1.19 -1.72,-2.92 -1.82,-4.61 z" />
    </g>
</svg>
